<?xml version="1.0" standalone="no"?>
<!DOCTYPE svg PUBLIC "-//W3C//DTD SVG 1.1//EN" "http://www.w3.org/Graphics/SVG/1.1/DTD/svg11.dtd" >
<svg xmlns="http://www.w3.org/2000/svg">
<metadata>
This is a custom SVG webfont generated by Font Squirrel.
Copyright   : NIGMA FONTS   email  kentpwnorwichnet
</metadata>
<defs>
<font id="webfontqTFhoU9X" horiz-adv-x="1228" >
<font-face units-per-em="2048" ascent="1638" descent="-410" />
<missing-glyph horiz-adv-x="500" />
<glyph unicode=" " />
<glyph unicode="!" horiz-adv-x="409" d="M0 410h205v614h-205v-614zM0 0h205v205h-205v-205z" />
<glyph unicode="&#x22;" horiz-adv-x="819" d="M0 614h205v410h-205v-410zM410 614h204v410h-204v-410z" />
<glyph unicode="#" d="M614 0h205v205h205v205h-205v204h205v205h-205v205h-205v-205h-204v205h-205v-205h-205v-205h205v-204h-205v-205h205v-205h205v205h204v-205zM410 614h204v-204h-204v204z" />
<glyph unicode="$" d="M0 1024v-614h819v-205h-819v-205h410v-205h204v205h410v614h-819v205h819v205h-410v205h-204v-205h-410z" />
<glyph unicode="%" d="M410 410h204v-410h410v410h-410v204h-204v410h-410v-410h410v-204zM205 205h205v205h-205v-205zM0 0h205v205h-205v-205zM614 614h205v205h-205v-205zM819 819h205v205h-205v-205z" />
<glyph unicode="&#x26;" d="M410 1024h-410v-1024h410v-205h204v205h410v205h-819v205h819v204h-819v205h819v205h-410v205h-204v-205z" />
<glyph unicode="'" horiz-adv-x="409" d="M0 614h205v410h-205v-410z" />
<glyph unicode="(" horiz-adv-x="614" d="M205 0h205v205h-205v614h-205v-614h205v-205zM205 819h205v205h-205v-205z" />
<glyph unicode=")" horiz-adv-x="614" d="M205 205h205v614h-205v205h-205v-205h205v-614zM0 0h205v205h-205v-205z" />
<glyph unicode="*" d="M205 614h205v-204h204v204h205v-204h205v204h-205v205h-205v205h-204v-205h-205v205h-205v-205h205v-205zM819 819h205v205h-205v-205zM0 410h205v204h-205v-204z" />
<glyph unicode="+" d="M0 410h410v-410h204v410h410v204h-410v410h-204v-410h-410v-204z" />
<glyph unicode="," horiz-adv-x="409" d="M0 -205h205v410h-205v-410z" />
<glyph unicode="-" horiz-adv-x="819" d="M0 410v204h614v-204h-614z" />
<glyph unicode="." horiz-adv-x="409" d="M0 0h205v205h-205v-205z" />
<glyph unicode="/" d="M0 0h205v205h-205v-205zM205 205h205v205h-205v-205zM410 410h204v204h-204v-204zM614 614h205v205h-205v-205zM819 819h205v205h-205v-205z" />
<glyph unicode="0" d="M0 0h1024v1024h-1024v-1024zM205 819h614v-614h-614v614z" />
<glyph unicode="1" horiz-adv-x="614" d="M0 819h205v-819h205v1024h-410v-205z" />
<glyph unicode="2" d="M0 819h819v-205h-819v-614h1024v205h-819v205h819v614h-1024v-205z" />
<glyph unicode="3" d="M0 819h819v-205h-409v-204h409v-205h-819v-205h1024v1024h-1024v-205z" />
<glyph unicode="4" d="M0 410h819v-410h205v1024h-205v-410h-614v410h-205v-614z" />
<glyph unicode="5" d="M0 1024v-614h819v-205h-819v-205h1024v614h-819v205h819v205h-1024z" />
<glyph unicode="6" d="M0 0h1024v614h-819v205h819v205h-1024v-1024zM205 410h614v-205h-614v205z" />
<glyph unicode="7" d="M0 819h819v-819h205v1024h-1024v-205z" />
<glyph unicode="8" d="M0 0h1024v1024h-1024v-1024zM205 410h614v-205h-614v205zM205 819h614v-205h-614v205z" />
<glyph unicode="9" d="M0 410h819v-410h205v1024h-1024v-614zM205 819h614v-205h-614v205z" />
<glyph unicode=":" horiz-adv-x="409" d="M0 819h205v205h-205v-205zM0 0h205v205h-205v-205z" />
<glyph unicode=";" horiz-adv-x="409" d="M0 -205h205v410h-205v-410zM0 819h205v205h-205v-205z" />
<glyph unicode="&#x3c;" horiz-adv-x="819" d="M205 205h205v-205h204v205h-204v205h-205v204h-205v-204h205v-205zM205 614h205v205h-205v-205zM410 819h204v205h-204v-205z" />
<glyph unicode="=" d="M0 614v205h1024v-205h-1024zM0 205v205h1024v-205h-1024z" />
<glyph unicode="&#x3e;" horiz-adv-x="819" d="M205 614h205v-204h204v204h-204v205h-205v205h-205v-205h205v-205zM205 205h205v205h-205v-205zM0 0h205v205h-205v-205z" />
<glyph unicode="?" d="M0 819h819v-205h-409v-204h614v614h-1024v-205zM410 0h204v205h-204v-205z" />
<glyph unicode="@" d="M410 0h614v1024h-1024v-1024h205v819h614v-205h-409v-614zM614 410h205v-205h-205v205z" />
<glyph unicode="A" d="M819 0h205v1024h-1024v-1024h205v410h614v-410zM205 819h614v-205h-614v205z" />
<glyph unicode="B" d="M0 0h819v205h-614v205h614v-205h205v614h-205v205h-819v-1024zM819 614h-614v205h614v-205z" />
<glyph unicode="C" d="M0 0h1024v205h-819v614h819v205h-1024v-1024z" />
<glyph unicode="D" d="M0 0h819v205h-614v614h614v-614h205v614h-205v205h-819v-1024z" />
<glyph unicode="E" d="M0 0h1024v205h-819v205h409v204h-409v205h819v205h-1024v-1024z" />
<glyph unicode="F" d="M0 0h205v410h409v204h-409v205h819v205h-1024v-1024z" />
<glyph unicode="G" d="M0 0h1024v614h-614v-204h409v-205h-614v614h819v205h-1024v-1024z" />
<glyph unicode="H" d="M819 0h205v1024h-205v-410h-614v410h-205v-1024h205v410h614v-410z" />
<glyph unicode="I" d="M0 819h410v-614h-410v-205h1024v205h-410v614h410v205h-1024v-205z" />
<glyph unicode="J" d="M0 0h1024v1024h-205v-819h-614v205h-205v-410z" />
<glyph unicode="K" d="M614 205h205v-205h205v205h-205v205h-205v204h-409v410h-205v-1024h205v410h409v-205zM819 614v205h-205v-205h205zM819 819h205v205h-205v-205z" />
<glyph unicode="L" d="M0 0h1024v205h-819v819h-205v-1024z" />
<glyph unicode="M" d="M205 614h205v-204h204v204h-204v205h-205v205h-205v-1024h205v614zM819 0h205v1024h-205v-205h-205v-205h205v-614z" />
<glyph unicode="N" d="M205 614h205v-204h204v-205h205v-205h205v1024h-205v-614h-205v204h-204v205h-205v205h-205v-1024h205v614z" />
<glyph unicode="O" d="M0 0h1024v1024h-1024v-1024zM205 819h614v-614h-614v614z" />
<glyph unicode="P" d="M205 410h819v409h-205v205h-819v-1024h205v410zM819 819v-205h-614v205h614z" />
<glyph unicode="Q" d="M0 0h410v-205h204v205h410v1024h-1024v-1024zM614 410h-204v-205h-205v614h614v-614h-205v205z" />
<glyph unicode="R" d="M0 0h205v410h409v-205h205v-205h205v205h-205v205h205v409h-205v205h-819v-1024zM819 819v-205h-614v205h614z" />
<glyph unicode="S" d="M0 410h819v-205h-819v-205h1024v614h-819v205h819v205h-1024v-614z" />
<glyph unicode="T" d="M0 819h410v-819h204v819h410v205h-1024v-205z" />
<glyph unicode="U" d="M0 0h1024v1024h-205v-819h-614v819h-205v-1024z" />
<glyph unicode="V" d="M205 205h205v-205h204v205h-204v205h-205v614h-205v-614h205v-205zM819 410h205v614h-205v-614zM614 205h205v205h-205v-205z" />
<glyph unicode="W" d="M614 205h205v-205h205v1024h-205v-614h-205v204h-204v-204h204v-205zM205 205h205v205h-205v614h-205v-1024h205v205z" />
<glyph unicode="X" d="M205 614h205v-204h204v-205h205v-205h205v205h-205v205h-205v204h-204v205h-205v205h-205v-205h205v-205zM0 0h205v205h-205v-205zM205 205h205v205h-205v-205zM819 819h205v205h-205v-205zM614 614h205v205h-205v-205z" />
<glyph unicode="Y" d="M0 410h410v-410h204v410h410v614h-205v-410h-614v410h-205v-614z" />
<glyph unicode="Z" d="M0 819h614v-205h205v205h205v205h-1024v-205zM0 0h1024v205h-614v205h-205v-205h-205v-205zM410 410h204v204h-204v-204z" />
<glyph unicode="[" horiz-adv-x="614" d="M0 0h410v205h-205v614h205v205h-410v-1024z" />
<glyph unicode="\" d="M205 614h205v-204h204v-205h205v-205h205v205h-205v205h-205v204h-204v205h-205v205h-205v-205h205v-205z" />
<glyph unicode="]" horiz-adv-x="614" d="M0 819h205v-614h-205v-205h410v1024h-410v-205z" />
<glyph unicode="^" horiz-adv-x="819" d="M410 614h204v205h-204v205h-205v-205h205v-205zM0 614h205v205h-205v-205z" />
<glyph unicode="_" d="M0 -408v205h1024v-205h-1024z" />
<glyph unicode="`" horiz-adv-x="409" d="M0 614h205v410h-205v-410z" />
<glyph unicode="a" d="M819 0h205v1024h-1024v-1024h205v410h614v-410zM205 819h614v-205h-614v205z" />
<glyph unicode="b" d="M819 614h205v410h-1024v-1024h1024v410h-205v204zM819 410v-205h-614v205h614zM819 614h-614v205h614v-205z" />
<glyph unicode="c" d="M0 0h1024v205h-819v614h819v205h-1024v-1024z" />
<glyph unicode="d" d="M0 0h819v205h-614v614h614v-614h205v614h-205v205h-819v-1024z" />
<glyph unicode="e" d="M0 0h1024v205h-819v205h409v204h-409v205h819v205h-1024v-1024z" />
<glyph unicode="f" d="M0 0h205v410h409v204h-409v205h819v205h-1024v-1024z" />
<glyph unicode="g" d="M0 0h1024v614h-614v-204h409v-205h-614v614h819v205h-1024v-1024z" />
<glyph unicode="h" d="M819 0h205v1024h-205v-410h-614v410h-205v-1024h205v410h614v-410z" />
<glyph unicode="i" horiz-adv-x="409" d="M0 0h205v1024h-205v-1024z" />
<glyph unicode="j" d="M0 0h1024v1024h-205v-819h-614v205h-205v-410z" />
<glyph unicode="k" d="M614 205h205v-205h205v205h-205v205h-205v204h-409v410h-205v-1024h205v410h409v-205zM819 614v205h-205v-205h205zM819 819h205v205h-205v-205z" />
<glyph unicode="l" d="M0 0h1024v205h-819v819h-205v-1024z" />
<glyph unicode="m" d="M410 0h204v819h205v-819h205v1024h-1024v-1024h205v819h205v-819z" />
<glyph unicode="n" d="M819 0h205v1024h-1024v-1024h205v819h614v-819z" />
<glyph unicode="o" d="M0 0h1024v1024h-1024v-1024zM205 819h614v-614h-614v614z" />
<glyph unicode="p" d="M0 0h205v410h819v614h-1024v-1024zM205 819h614v-205h-614v205z" />
<glyph unicode="q" d="M0 0h410v-205h204v205h410v1024h-1024v-1024zM614 410h-204v-205h-205v614h614v-614h-205v205z" />
<glyph unicode="r" d="M614 205h205v-205h205v205h-205v205h205v614h-1024v-1024h205v410h409v-205zM205 819h614v-205h-614v205z" />
<glyph unicode="s" d="M0 410h819v-205h-819v-205h1024v614h-819v205h819v205h-1024v-614z" />
<glyph unicode="t" d="M0 819h410v-819h204v819h410v205h-1024v-205z" />
<glyph unicode="u" d="M0 0h1024v1024h-205v-819h-614v819h-205v-1024z" />
<glyph unicode="v" d="M205 205h205v-205h204v205h-204v205h-205v614h-205v-614h205v-205zM819 410h205v614h-205v-614zM614 205h205v205h-205v-205z" />
<glyph unicode="w" d="M0 0h1024v1024h-205v-819h-205v819h-204v-819h-205v819h-205v-1024z" />
<glyph unicode="x" d="M205 614h205v-204h204v-205h205v-205h205v205h-205v205h-205v204h-204v205h-205v205h-205v-205h205v-205zM0 0h205v205h-205v-205zM205 205h205v205h-205v-205zM819 819h205v205h-205v-205zM614 614h205v205h-205v-205z" />
<glyph unicode="y" d="M205 614h205v-614h204v614h-204v205h-205v205h-205v-205h205v-205zM819 819h205v205h-205v-205zM614 614h205v205h-205v-205z" />
<glyph unicode="z" d="M0 819h614v-205h205v205h205v205h-1024v-205zM0 0h1024v205h-614v205h-205v-205h-205v-205zM410 410h204v204h-204v-204z" />
<glyph unicode="{" horiz-adv-x="819" d="M0 410h205v-410h409v205h-204v614h204v205h-409v-410h-205v-204z" />
<glyph unicode="|" horiz-adv-x="409" d="M0 -410h205v1844h-205v-1844z" />
<glyph unicode="}" horiz-adv-x="819" d="M0 819h205v-614h-205v-205h410v410h204v204h-204v410h-410v-205z" />
<glyph unicode="~" d="M410 205h614v409h-205v-204h-205v409h-614v-409h205v204h205v-409z" />
<glyph unicode="&#xa0;" />
<glyph unicode="&#xa1;" horiz-adv-x="409" d="M0 0h205v614h-205v-614zM0 819h205v205h-205v-205z" />
<glyph unicode="&#xa2;" d="M0 0h410v-205h204v205h410v205h-819v614h819v205h-410v205h-204v-205h-410v-1024z" />
<glyph unicode="&#xa3;" d="M0 819h205v-205h-205v-204h205v-205h-205v-205h1024v205h-614v205h204v204h-204v205h409v-205h205v205h-205v205h-819v-205z" />
<glyph unicode="&#xa5;" d="M0 614h205v-204h205v-205h-205v-205h614v205h-205v205h205v204h205v410h-205v-205h-614v205h-205v-410z" />
<glyph unicode="&#xa7;" d="M0 205h819v-205h-819v-205h1024v1024h-819v205h819v205h-1024v-1024zM819 614v-204h-614v204h614z" />
<glyph unicode="&#xa8;" d="M0 1024v410h410v-410h-410zM614 1024v410h410v-410h-410z" />
<glyph unicode="&#xa9;" d="M205 -205h614v205h-614v205h614v-205h205v1024h-205v205h-614v-205h614v-205h-614v205h-205v-1024h205v-205zM819 614v-204h-409v204h409z" />
<glyph unicode="&#xaa;" horiz-adv-x="614" d="M0 1229h205v-205h-205v-410h410v820h-410v-205z" />
<glyph unicode="&#xab;" d="M205 205h205v205h-205v204h-205v-204h205v-205zM819 205h205v205h-205v204h-205v-204h205v-205zM819 614h205v205h-205v-205zM205 614h205v205h-205v-205z" />
<glyph unicode="&#xac;" d="M0 614v205h1024v-409h-205v204h-819z" />
<glyph unicode="&#xad;" horiz-adv-x="819" d="M0 410v204h614v-204h-614z" />
<glyph unicode="&#xae;" d="M205 1024h-205v-1024h205v-205h614v205h-614v205h205v205h204v-205h205v-205h205v1024h-205v205h-614v-205zM205 1024h614v-205h-614v205zM819 614v-204h-205v204h205z" />
<glyph unicode="&#xb0;" horiz-adv-x="819" d="M0 819h614v615h-614v-615zM205 1229h205v-205h-205v205z" />
<glyph unicode="&#xb1;" d="M0 614h410v-204h204v204h410v205h-410v205h-204v-205h-410v-205zM0 0h1024v205h-1024v-205z" />
<glyph unicode="&#xb4;" horiz-adv-x="614" d="M0 1024h205v205h-205v-205zM205 1229h205v205h-205v-205z" />
<glyph unicode="&#xb5;" d="M0 0h1024v1024h-205v-819h-614v819h-205v-1024zM0 -410h205v410h-205v-410z" />
<glyph unicode="&#xb6;" d="M0 410h410v-410h204v819h205v-819h205v1024h-1024v-614z" />
<glyph unicode="&#xb7;" horiz-adv-x="819" d="M0 205v614h614v-614h-614z" />
<glyph unicode="&#x2219;" horiz-adv-x="819" d="M0 205v614h614v-614h-614z" />
<glyph unicode="&#xb8;" horiz-adv-x="614" d="M0 -410h410v410h-205v-205h-205v-205z" />
<glyph unicode="&#xba;" horiz-adv-x="819" d="M0 614h614v820h-614v-820zM205 1229h205v-410h-205v410z" />
<glyph unicode="&#xbb;" d="M205 410h205v204h-205v205h-205v-205h205v-204zM819 410h205v204h-205v205h-205v-205h205v-204zM614 205h205v205h-205v-205zM0 205h205v205h-205v-205z" />
<glyph unicode="&#xbf;" d="M0 0h1024v205h-819v205h409v204h-614v-614zM410 819h204v205h-204v-205z" />
<glyph unicode="&#xf7;" horiz-adv-x="819" d="M0 410h614v204h-614v-204zM205 819h205v205h-205v-205zM205 0h205v205h-205v-205z" />
<glyph unicode="&#x2c6;" horiz-adv-x="819" d="M410 1024h204v205h-204v205h-205v-205h205v-205zM0 1024h205v205h-205v-205z" />
<glyph unicode="&#x2da;" d="M-307 123h614v615h-614v-615zM-102 533h205v-205h-205v205z" />
<glyph unicode="&#x2dc;" d="M205 1229h205v-205h614v410h-205v-205h-205v205h-614v-410h205v205z" />
<glyph unicode="&#x410;" d="M819 0h205v1024h-1024v-1024h205v410h614v-410zM205 819h614v-205h-614v205z" />
<glyph unicode="&#x412;" d="M0 0h819v205h-614v205h614v-205h205v614h-205v205h-819v-1024zM819 614h-614v205h614v-205z" />
<glyph unicode="&#x415;" d="M0 0h1024v205h-819v205h409v204h-409v205h819v205h-1024v-1024z" />
<glyph unicode="&#x41a;" d="M614 205h205v-205h205v205h-205v205h-205v204h-409v410h-205v-1024h205v410h409v-205zM819 614v205h-205v-205h205zM819 819h205v205h-205v-205z" />
<glyph unicode="&#x41c;" d="M205 614h205v-204h204v204h-204v205h-205v205h-205v-1024h205v614zM819 0h205v1024h-205v-205h-205v-205h205v-614z" />
<glyph unicode="&#x41d;" d="M819 0h205v1024h-205v-410h-614v410h-205v-1024h205v410h614v-410z" />
<glyph unicode="&#x41e;" d="M0 0h1024v1024h-1024v-1024zM205 819h614v-614h-614v614z" />
<glyph unicode="&#x420;" d="M205 410h819v409h-205v205h-819v-1024h205v410zM819 819v-205h-614v205h614z" />
<glyph unicode="&#x421;" d="M0 0h1024v205h-819v614h819v205h-1024v-1024z" />
<glyph unicode="&#x422;" d="M0 819h410v-819h204v819h410v205h-1024v-205z" />
<glyph unicode="&#x425;" d="M205 614h205v-204h204v-205h205v-205h205v205h-205v205h-205v204h-204v205h-205v205h-205v-205h205v-205zM0 0h205v205h-205v-205zM205 205h205v205h-205v-205zM819 819h205v205h-205v-205zM614 614h205v205h-205v-205z" />
<glyph unicode="&#x430;" d="M819 0h205v1024h-1024v-1024h205v410h614v-410zM205 819h614v-205h-614v205z" />
<glyph unicode="&#x435;" d="M0 0h1024v205h-819v205h409v204h-409v205h819v205h-1024v-1024z" />
<glyph unicode="&#x43e;" d="M0 0h1024v1024h-1024v-1024zM205 819h614v-614h-614v614z" />
<glyph unicode="&#x440;" d="M0 0h205v410h819v614h-1024v-1024zM205 819h614v-205h-614v205z" />
<glyph unicode="&#x441;" d="M0 0h1024v205h-819v614h819v205h-1024v-1024z" />
<glyph unicode="&#x443;" d="M205 614h205v-614h204v614h-204v205h-205v205h-205v-205h205v-205zM819 819h205v205h-205v-205zM614 614h205v205h-205v-205z" />
<glyph unicode="&#x445;" d="M205 614h205v-204h204v-205h205v-205h205v205h-205v205h-205v204h-204v205h-205v205h-205v-205h205v-205zM0 0h205v205h-205v-205zM205 205h205v205h-205v-205zM819 819h205v205h-205v-205zM614 614h205v205h-205v-205z" />
<glyph unicode="&#x2000;" horiz-adv-x="716" />
<glyph unicode="&#x2001;" horiz-adv-x="1433" />
<glyph unicode="&#x2002;" horiz-adv-x="716" />
<glyph unicode="&#x2003;" horiz-adv-x="1433" />
<glyph unicode="&#x2004;" horiz-adv-x="477" />
<glyph unicode="&#x2005;" horiz-adv-x="358" />
<glyph unicode="&#x2006;" horiz-adv-x="237" />
<glyph unicode="&#x2007;" horiz-adv-x="237" />
<glyph unicode="&#x2008;" horiz-adv-x="178" />
<glyph unicode="&#x2009;" horiz-adv-x="286" />
<glyph unicode="&#x200a;" horiz-adv-x="77" />
<glyph unicode="&#x2010;" horiz-adv-x="819" d="M0 410v204h614v-204h-614z" />
<glyph unicode="&#x2011;" horiz-adv-x="819" d="M0 410v204h614v-204h-614z" />
<glyph unicode="&#x2012;" horiz-adv-x="819" d="M0 410v204h614v-204h-614z" />
<glyph unicode="&#x2013;" horiz-adv-x="614" d="M0 410v204h410v-204h-410z" />
<glyph unicode="&#x2014;" horiz-adv-x="1024" d="M0 410v204h819v-204h-819z" />
<glyph unicode="&#x2018;" horiz-adv-x="409" d="M0 1024h205v410h-205v-410z" />
<glyph unicode="&#x2019;" horiz-adv-x="409" d="M0 1024h205v410h-205v-410z" />
<glyph unicode="&#x201a;" horiz-adv-x="409" d="M0 -205h205v410h-205v-410z" />
<glyph unicode="&#x201c;" horiz-adv-x="819" d="M0 1024h205v410h-205v-410zM410 1024h204v410h-204v-410z" />
<glyph unicode="&#x201d;" horiz-adv-x="819" d="M0 1024h205v410h-205v-410zM410 1024h204v410h-204v-410z" />
<glyph unicode="&#x201e;" horiz-adv-x="819" d="M0 -205h205v410h-205v-410zM410 -205h204v410h-204v-410z" />
<glyph unicode="&#x2020;" d="M0 819v205h410v410h204v-410h410v-205h-410v-1227h-204v1227h-410z" />
<glyph unicode="&#x2021;" d="M0 0h410v-410h204v410h410v205h-410v614h410v205h-410v410h-204v-410h-410v-205h410v-614h-410v-205z" />
<glyph unicode="&#x2022;" d="M0 410h205v-205h205v-205h204v205h205v205h205v204h-205v205h-205v205h-204v-205h-205v-205h-205v-204z" />
<glyph unicode="&#x2026;" d="M0 0h205v205h-205v-205zM410 0h204v205h-204v-205zM819 0h205v205h-205v-205z" />
<glyph unicode="&#x202f;" horiz-adv-x="286" />
<glyph unicode="&#x2030;" horiz-adv-x="1843" d="M410 410h204v-410h410v410h-410v204h-204v410h-410v-410h410v-204zM1229 0h409v410h-409v-410zM205 205h205v205h-205v-205zM0 0h205v205h-205v-205zM614 614h205v205h-205v-205zM819 819h205v205h-205v-205z" />
<glyph unicode="&#x2039;" horiz-adv-x="614" d="M205 205h205v205h-205v204h-205v-204h205v-205zM205 614h205v205h-205v-205z" />
<glyph unicode="&#x203a;" horiz-adv-x="614" d="M205 410h205v204h-205v205h-205v-205h205v-204zM0 205h205v205h-205v-205z" />
<glyph unicode="&#x205f;" horiz-adv-x="358" />
<glyph unicode="&#x2122;" d="M0 1229h410v-615h204v615h410v205h-1024v-205zM205 0h205v-205h204v205h-204v205h-205v205h-205v-820h205v410zM614 0h205v-410h205v820h-205v-205h-205v-205z" />
<glyph unicode="&#x2260;" d="M0 0h205v205h-205v-205zM205 205h205v205h-205v-205zM410 410h204v204h-204v-204zM614 614h205v205h-205v-205zM819 819h205v205h-205v-205zM0 614v205h1024v-205h-1024zM0 205v205h1024v-205h-1024z" />
<glyph unicode="&#xe000;" horiz-adv-x="1025" d="M0 1025h1025v-1025h-1025v1025z" />
<glyph unicode="&#xfb01;" horiz-adv-x="1638" d="M1229 0h205v1024h-205v-1024zM0 0h205v410h409v204h-409v205h819v205h-1024v-1024z" />
<glyph unicode="&#xfb02;" horiz-adv-x="2457" d="M1229 0h1024v205h-819v819h-205v-1024zM0 0h205v410h409v204h-409v205h819v205h-1024v-1024z" />
<glyph unicode="&#xfb03;" horiz-adv-x="2867" d="M2458 0h205v1024h-205v-1024zM1229 0h205v410h409v204h-409v205h819v205h-1024v-1024zM0 0h205v410h409v204h-409v205h819v205h-1024v-1024z" />
<glyph unicode="&#xfb04;" horiz-adv-x="3686" d="M2458 0h1024v205h-819v819h-205v-1024zM1229 0h205v410h409v204h-409v205h819v205h-1024v-1024zM0 0h205v410h409v204h-409v205h819v205h-1024v-1024z" />
</font>
</defs>
</svg>
